<?xml version="1.0" standalone="no"?>
<!DOCTYPE svg PUBLIC "-//W3C//DTD SVG 20010904//EN"
 "http://www.w3.org/TR/2001/REC-SVG-20010904/DTD/svg10.dtd">
<svg version="1.0" xmlns="http://www.w3.org/2000/svg"
 width="350.000000pt" height="350.000000pt" viewBox="0 0 350.000000 350.000000"
 preserveAspectRatio="xMidYMid meet">

<g transform="translate(0.000000,350.000000) scale(0.100000,-0.100000)"
fill="#000000" stroke="none">
<path d="M1465 3475 c-552 -89 -1044 -459 -1290 -969 -133 -276 -182 -536
-164 -862 13 -244 62 -437 164 -649 342 -710 1112 -1105 1884 -965 476 86 890
362 1158 772 332 506 371 1160 103 1713 -233 480 -682 831 -1212 947 -124 27
-507 35 -643 13z m495 -15 c785 -96 1401 -716 1499 -1510 16 -121 13 -339 -4
-455 -82 -546 -428 -1026 -918 -1276 -167 -85 -303 -131 -490 -165 -128 -24
-157 -26 -336 -21 -220 5 -329 22 -511 83 -502 167 -912 579 -1080 1083 -71
213 -84 296 -84 551 -1 197 2 238 22 332 112 534 447 971 928 1211 156 78 374
145 544 166 95 12 333 13 430 1z"/>
<path d="M1636 3334 c-185 -45 -327 -180 -380 -363 -23 -78 -21 -213 4 -293
52 -169 207 -313 375 -348 53 -11 55 -12 55 -45 0 -33 -1 -34 -57 -45 -117
-23 -289 -124 -517 -300 l-109 -85 44 -8 c24 -5 50 -14 56 -19 9 -7 25 1 57
29 67 59 172 127 266 173 46 22 85 38 87 36 2 -2 -3 -32 -11 -67 -39 -172 -60
-354 -60 -541 -1 -102 3 -190 7 -195 5 -4 108 -6 230 -4 122 2 251 4 286 5 62
1 65 2 74 31 14 44 13 325 -1 430 -7 50 -24 146 -38 214 -13 68 -23 126 -20
128 16 17 294 -150 364 -217 23 -22 37 -29 45 -22 7 5 29 15 50 21 20 7 37 16
37 21 0 9 -196 152 -315 230 -104 68 -226 125 -297 141 -56 12 -58 13 -58 45
0 30 2 33 53 44 184 43 345 201 386 380 15 66 13 187 -4 255 -23 88 -62 153
-136 225 -134 132 -306 185 -473 144z"/>
<path d="M2898 1833 c-27 -13 -30 -22 -44 -112 -11 -72 -27 -81 -153 -81 -141
0 -135 -5 -159 140 l-8 45 -59 0 c-51 0 -64 -4 -86 -26 -53 -53 -104 -247 -97
-368 4 -65 32 -141 54 -148 6 -2 30 43 54 99 69 163 114 228 160 228 33 0 60
-28 60 -61 0 -51 -56 -66 -103 -29 l-26 21 -50 -103 c-50 -101 -76 -185 -52
-163 6 6 28 47 49 90 22 44 46 86 54 93 23 19 400 21 423 2 8 -7 36 -53 61
-101 43 -83 75 -119 58 -66 -28 91 -144 292 -144 249 0 -39 -74 -56 -103 -24
-22 24 -21 45 1 70 55 64 113 16 208 -171 l67 -131 23 27 c13 15 28 46 34 68
32 117 -71 461 -132 445 -10 -2 -18 -1 -18 4 0 14 -45 16 -72 3z m11 -50 c0
-25 -1 -26 -9 -8 -8 18 -9 18 -10 -5 -2 -18 -4 -20 -7 -7 -6 22 3 47 17 47 5
0 10 -12 9 -27z m-380 -16 c0 -21 -1 -21 -9 -2 -12 28 -12 37 0 30 6 -3 10
-16 9 -28z m-19 -3 c0 -8 -4 -12 -10 -9 -5 3 -10 13 -10 21 0 8 5 12 10 9 6
-3 10 -13 10 -21z m478 -17 c3 -21 -1 -27 -16 -27 -24 0 -36 28 -21 47 17 20
33 11 37 -20z m-555 -4 c-7 -2 -13 -16 -13 -29 0 -13 -4 -24 -10 -24 -5 0 -7
7 -5 15 3 8 7 22 10 30 2 8 10 15 17 14 10 0 10 -2 1 -6z m82 -53 c8 -12 -6
-40 -19 -40 -7 0 -17 -12 -22 -27 l-10 -28 -5 33 c-4 24 -2 32 7 28 18 -7 50
19 35 28 -7 4 -18 5 -26 2 -9 -3 -15 0 -15 8 0 14 46 11 55 -4z m403 -18 c3
-16 -2 -22 -17 -22 -24 0 -35 15 -27 36 9 23 40 13 44 -14z m137 3 c0 -13 -8
-21 -22 -23 -17 -3 -23 2 -23 16 0 10 3 22 7 26 13 13 38 1 38 -19z m-679 -4
c0 -11 -4 -17 -8 -15 -4 3 -8 12 -8 20 0 8 4 14 8 14 4 0 8 -9 8 -19z m46 -46
c3 -13 2 -22 -2 -20 -11 7 -20 45 -10 45 4 0 10 -11 12 -25z m568 -4 c0 -33
-41 -49 -61 -25 -16 19 5 44 37 44 17 0 24 -6 24 -19z m-270 -27 c0 -2 -7 -4
-15 -4 -8 0 -15 4 -15 10 0 5 7 7 15 4 8 -4 15 -8 15 -10z m-2 -66 c4 -19 -20
-29 -38 -18 -11 7 -12 11 0 25 15 18 34 15 38 -7z"/>
<path d="M2960 1750 c0 -5 5 -10 10 -10 6 0 10 5 10 10 0 6 -4 10 -10 10 -5 0
-10 -4 -10 -10z"/>
<path d="M2882 1678 c2 -6 10 -14 16 -16 7 -2 10 2 6 12 -7 18 -28 22 -22 4z"/>
<path d="M3020 1670 c0 -5 5 -10 10 -10 6 0 10 5 10 10 0 6 -4 10 -10 10 -5 0
-10 -4 -10 -10z"/>
<path d="M2960 1614 c0 -8 5 -12 10 -9 6 3 10 10 10 16 0 5 -4 9 -10 9 -5 0
-10 -7 -10 -16z"/>
<path d="M477 1808 c-36 -40 -53 -82 -79 -188 -37 -152 -26 -276 27 -320 14
-12 18 -12 26 1 7 11 9 9 9 -9 0 -38 18 -16 59 71 21 45 45 88 54 95 23 19
410 20 433 1 9 -7 36 -53 60 -101 24 -48 49 -88 54 -88 6 0 10 2 10 5 0 11
-85 193 -106 227 -30 47 -41 53 -49 28 -13 -41 -90 -37 -101 5 -15 60 38 102
85 67 36 -27 92 -114 130 -202 18 -42 41 -86 50 -99 l18 -23 24 38 c22 36 24
49 23 154 -1 117 -13 181 -56 281 -24 57 -53 74 -126 74 l-56 0 -17 -73 c-24
-107 -31 -112 -154 -112 -133 0 -143 7 -159 111 l-11 74 -60 -1 c-39 -1 -53 1
-40 7 20 8 20 8 0 8 -11 1 -33 -13 -48 -31z m528 -38 c-9 -28 -35 -25 -35 3 0
32 21 52 33 32 4 -9 5 -24 2 -35z m-390 20 c3 -11 3 -24 0 -30 -10 -16 -36 16
-29 34 8 22 21 20 29 -4z m439 -52 c-3 -4 -3 -8 1 -8 3 0 10 10 15 23 8 21 9
21 9 -6 1 -22 -3 -28 -16 -25 -11 2 -19 14 -21 28 -2 19 -1 22 7 10 5 -8 7
-18 5 -22z m-541 -42 c4 -10 1 -13 -9 -9 -7 3 -14 9 -14 14 0 14 17 10 23 -5z
m94 -12 c2 -5 -2 -18 -9 -27 -12 -15 -13 -14 -13 13 0 28 14 37 22 14z m407 7
c11 -18 -6 -42 -28 -39 -21 3 -36 38 -16 38 6 0 9 -4 5 -9 -3 -5 -1 -12 5 -16
9 -6 14 7 11 28 -1 10 17 9 23 -2z m131 -16 c0 -13 -8 -21 -22 -23 -17 -3 -23
2 -23 16 0 10 3 22 7 26 13 13 38 1 38 -19z m-587 -42 c-2 -14 -10 -29 -18
-31 -13 -5 -13 -3 -1 11 7 9 11 24 7 32 -3 8 -1 15 5 15 6 0 9 -12 7 -27z
m516 -2 c11 -17 -5 -38 -30 -38 -23 0 -34 24 -17 40 9 10 41 8 47 -2z m-287
-33 c-3 -7 -5 -2 -5 12 0 14 2 19 5 13 2 -7 2 -19 0 -25z m-89 -6 c17 -22 15
-57 -4 -76 -23 -23 -61 -20 -89 8 l-24 24 -30 -51 c-17 -29 -31 -46 -31 -38 0
29 79 140 109 153 21 9 53 0 69 -20z m106 -57 c3 -9 -1 -18 -10 -22 -19 -7
-28 2 -21 22 8 19 23 19 31 0z"/>
<path d="M1120 1680 c0 -5 5 -10 10 -10 6 0 10 5 10 10 0 6 -4 10 -10 10 -5 0
-10 -4 -10 -10z"/>
<path d="M1050 1620 c0 -5 5 -10 11 -10 5 0 7 5 4 10 -3 6 -8 10 -11 10 -2 0
-4 -4 -4 -10z"/>
<path d="M644 1783 c4 -32 12 -71 18 -86 l11 -28 121 3 121 3 17 70 c10 39 16
76 13 83 -3 9 -44 12 -156 12 l-151 0 6 -57z"/>
<path d="M2554 1826 c-7 -19 13 -125 27 -142 15 -19 234 -20 245 -2 16 26 32
136 21 147 -7 7 -65 11 -149 11 -110 0 -140 -3 -144 -14z"/>
<path d="M2820 1011 c0 -10 7 -21 15 -25 12 -4 15 -27 15 -121 0 -94 -3 -117
-15 -121 -8 -4 -15 -15 -15 -26 0 -17 6 -19 52 -16 41 2 54 7 56 21 2 10 -3
17 -12 17 -26 0 -23 121 3 144 24 22 57 13 65 -17 12 -45 7 -117 -9 -123 -8
-4 -15 -15 -15 -25 0 -16 8 -19 49 -19 53 0 74 16 48 35 -13 9 -17 29 -17 84
0 63 -3 75 -25 96 -28 29 -61 32 -93 9 l-22 -15 0 60 0 61 -40 0 c-33 0 -40
-4 -40 -19z"/>
<path d="M509 987 c-88 -58 -93 -208 -9 -265 29 -20 44 -23 92 -20 72 5 88 19
88 74 0 24 5 44 10 44 6 0 10 9 10 20 0 18 -7 20 -55 20 -48 0 -55 -2 -55 -20
0 -11 7 -20 15 -20 24 0 20 -67 -4 -75 -32 -10 -71 6 -86 36 -22 42 -19 121 5
152 36 46 110 47 110 1 0 -17 5 -24 20 -24 17 0 20 7 20 44 0 37 -4 45 -22 50
-49 13 -105 6 -139 -17z"/>
<path d="M1817 1004 c-13 -13 -7 -34 9 -34 15 0 16 -12 10 -107 -5 -80 -11
-111 -23 -120 -29 -23 -8 -43 47 -43 43 0 50 3 50 20 0 11 -7 20 -15 20 -17 0
-20 53 -8 124 l6 40 32 -85 c27 -71 36 -84 55 -84 19 0 28 13 55 84 35 94 45
89 45 -21 0 -46 -3 -58 -16 -58 -9 0 -14 -7 -12 -17 5 -26 108 -32 108 -7 0 9
-6 22 -14 28 -20 16 -30 215 -10 223 8 3 14 14 14 24 0 16 -7 19 -44 19 l-43
0 -38 -100 c-21 -55 -40 -98 -44 -94 -3 3 -22 47 -41 97 l-35 92 -41 3 c-22 2
-43 0 -47 -4z"/>
<path d="M2475 960 c-3 -11 -15 -25 -26 -30 -23 -13 -26 -40 -4 -40 12 0 15
-15 15 -73 0 -95 15 -119 73 -115 30 2 43 8 45 21 3 13 -3 17 -26 17 -35 0
-42 17 -42 98 0 51 0 52 30 52 23 0 30 5 30 19 0 14 -8 21 -27 23 -20 2 -29 9
-31 26 -4 27 -28 29 -37 2z"/>
<path d="M792 925 c-91 -40 -74 -225 20 -225 16 0 39 5 51 11 16 9 22 9 25 0
2 -6 17 -11 33 -11 35 0 51 27 26 42 -14 7 -17 26 -17 97 l0 89 -31 6 c-46 9
-70 7 -107 -9z m86 -93 c3 -69 -7 -92 -42 -92 -33 0 -46 19 -46 70 0 58 22 92
58 88 26 -3 27 -6 30 -66z"/>
<path d="M1082 924 c-12 -8 -22 -10 -22 -5 0 6 -18 11 -40 11 -29 0 -40 -4
-40 -15 0 -9 7 -18 15 -21 23 -9 21 -142 -2 -159 -26 -19 -5 -35 48 -35 42 0
49 3 49 20 0 11 -4 20 -10 20 -6 0 -10 30 -10 69 0 75 13 98 50 86 18 -6 20
-15 20 -77 0 -54 -4 -74 -17 -83 -26 -19 -5 -35 48 -35 42 0 49 3 49 20 0 11
-4 20 -10 20 -6 0 -10 30 -10 69 0 75 13 98 50 86 18 -6 20 -15 20 -77 0 -54
-4 -74 -17 -83 -26 -19 -5 -35 48 -35 42 0 49 3 49 20 0 11 -4 20 -9 20 -5 0
-11 37 -13 82 -4 69 -8 84 -28 100 -27 22 -58 23 -88 2 -20 -14 -24 -14 -44 0
-12 9 -32 16 -43 16 -11 0 -31 -7 -43 -16z"/>
<path d="M1442 927 c-69 -39 -81 -169 -19 -212 25 -17 83 -20 122 -5 22 8 24
13 15 30 -9 16 -15 18 -30 10 -27 -15 -56 -12 -74 6 -23 22 -20 33 12 39 61
13 90 33 97 66 6 28 3 36 -19 56 -30 25 -69 29 -104 10z m75 -43 c7 -20 -14
-41 -49 -49 -23 -6 -28 -4 -28 11 0 41 63 73 77 38z"/>
<path d="M1701 923 c-18 -12 -26 -13 -29 -5 -2 7 -19 12 -38 12 -27 0 -34 -4
-34 -20 0 -11 7 -20 15 -20 12 0 15 -14 15 -70 0 -54 -4 -72 -15 -76 -8 -4
-15 -15 -15 -25 0 -17 8 -19 60 -19 53 0 60 2 60 20 0 13 -7 20 -20 20 -18 0
-20 7 -20 56 0 30 5 64 10 75 13 22 50 26 50 4 0 -8 9 -15 21 -15 17 0 20 5
17 38 -3 31 -7 37 -28 40 -14 1 -36 -5 -49 -15z"/>
<path d="M2252 925 c-91 -40 -74 -225 20 -225 16 0 39 5 51 11 16 9 22 9 25 0
2 -6 17 -11 33 -11 35 0 51 27 26 42 -14 7 -17 26 -17 97 l0 89 -31 6 c-46 9
-70 7 -107 -9z m86 -93 c3 -69 -7 -92 -42 -92 -33 0 -46 19 -46 70 0 58 22 92
58 88 26 -3 27 -6 30 -66z"/>
<path d="M2674 930 c-12 -4 -31 -21 -44 -37 -18 -24 -21 -37 -18 -87 4 -49 9
-63 32 -83 31 -26 100 -32 131 -10 29 22 10 38 -36 31 -46 -8 -65 4 -74 47
-10 45 4 89 32 102 22 10 27 8 43 -13 22 -29 50 -21 50 15 0 38 -62 57 -116
35z"/>
</g>
</svg>
